<svg width="74" height="70" viewBox="0 0 74 70" fill="none" xmlns="http://www.w3.org/2000/svg">
<g clip-path="url(#clip0_14_278)">
<path d="M36.8569 0C16.504 0 0 16.0456 0 35.8395C0 51.6746 10.5606 65.1086 25.2051 69.8477C27.047 70.1794 27.7234 69.0702 27.7234 68.1235C27.7234 67.269 27.689 64.4456 27.6734 61.4509C17.4195 63.6189 15.2559 57.2223 15.2559 57.2223C13.5793 53.0797 11.1636 51.9784 11.1636 51.9784C7.81972 49.7539 11.4157 49.7995 11.4157 49.7995C15.1168 50.0524 17.0657 53.4929 17.0657 53.4929C20.3529 58.972 25.6878 57.3879 27.791 56.4724C28.1217 54.1557 29.0771 52.5749 30.131 51.6799C21.9448 50.7734 13.3388 47.7003 13.3388 33.9677C13.3388 30.0551 14.7786 26.8578 17.1365 24.348C16.7538 23.4451 15.4923 19.8 17.4935 14.8634C17.4935 14.8634 20.5885 13.9001 27.6318 18.5371C30.5715 17.7428 33.7246 17.3448 36.8569 17.3313C39.9892 17.3448 43.1446 17.7428 46.0901 18.5371C53.1251 13.9001 56.2157 14.8634 56.2157 14.8634C58.2218 19.8 56.9598 23.4451 56.577 24.348C58.9401 26.8578 60.3701 30.0548 60.3701 33.9677C60.3701 47.7329 51.748 50.7641 43.5409 51.6512C44.8628 52.7635 46.0407 54.9447 46.0407 58.2882C46.0407 63.0834 45.9979 66.943 45.9979 68.1235C45.9979 69.0773 46.6613 70.1948 48.5298 69.8429C63.1662 65.0985 73.7135 51.6692 73.7135 35.8395C73.7135 16.0456 57.2118 0 36.8569 0Z" fill="white"/>
<path d="M13.8042 51.0543C13.7232 51.2322 13.4348 51.2856 13.1726 51.1636C12.9052 51.0467 12.7549 50.8038 12.8416 50.6251C12.9211 50.4418 13.2096 50.3906 13.4764 50.5138C13.7443 50.6304 13.897 50.8755 13.8042 51.0543ZM15.6172 52.6272C15.4414 52.7857 15.0977 52.7121 14.8645 52.4617C14.6234 52.2118 14.5783 51.8778 14.7566 51.7168C14.9379 51.5585 15.2712 51.6325 15.5128 51.8826C15.7539 52.1353 15.8007 52.4673 15.6169 52.6275M16.861 54.6398C16.635 54.7924 16.2655 54.6493 16.0375 54.3306C15.8117 54.0121 15.8117 53.6298 16.0424 53.4766C16.2713 53.3235 16.635 53.4612 16.8662 53.7774C17.0917 54.1015 17.0917 54.4838 16.8607 54.6401M18.9642 56.9708C18.7622 57.1872 18.3321 57.1293 18.017 56.8336C17.695 56.5447 17.6051 56.1346 17.8077 55.9179C18.0121 55.7009 18.4448 55.7619 18.7622 56.055C19.0822 56.3434 19.1796 56.7566 18.9642 56.9708ZM21.6826 57.7578C21.5938 58.0383 21.1793 58.166 20.7619 58.0468C20.3451 57.9239 20.0722 57.5951 20.1563 57.3115C20.243 57.029 20.6593 56.896 21.0799 57.0236C21.4961 57.1459 21.7693 57.4722 21.6826 57.7578ZM24.7767 58.0915C24.7871 58.3872 24.433 58.6323 23.9948 58.6376C23.554 58.6469 23.1976 58.4077 23.1929 58.117C23.1929 57.8185 23.5389 57.5757 23.9795 57.5687C24.4177 57.5602 24.7767 57.7977 24.7767 58.0915ZM27.8159 57.9782C27.8685 58.2666 27.5638 58.5628 27.1288 58.6415C26.701 58.7174 26.305 58.5395 26.2503 58.2537C26.1972 57.958 26.5076 57.662 26.9346 57.5852C27.3705 57.5116 27.7604 57.685 27.8159 57.9782Z" fill="white"/>
</g>
<defs>
<clipPath id="clip0_14_278">
<rect width="74" height="70" fill="white"/>
</clipPath>
</defs>
</svg>
