<svg width="64" height="64" viewBox="0 0 64 64" fill="none" xmlns="http://www.w3.org/2000/svg">
<g clip-path="url(#clip0_14_269)">
<path d="M59.336 31.518C59.336 27.664 56.686 24.421 53.129 23.495L61.097 0H21.61L29.596 23.57C26.15 24.57 23.611 27.758 23.611 31.538C23.611 34.318 25.011 36.782 27.113 38.301C26.279 39.487 25.316 40.581 24.223 41.618C22.166 43.545 19.887 45.028 17.423 46.008C15.199 44.508 14.236 41.858 15.107 39.486C18.497 38.448 20.962 35.28 20.962 31.556C20.962 26.979 17.238 23.273 12.679 23.273C8.10201 23.273 4.37901 26.997 4.37901 31.573C4.3801 33.7548 5.24644 35.8471 6.78801 37.391L6.39801 38.188C5.15801 40.745 3.74801 43.636 3.21101 46.888C2.13601 53.373 3.89701 58.58 8.14101 61.526C10.541 63.176 13.161 64.009 15.997 64.009C20.87 64.009 25.817 61.563 30.597 59.191C34.007 57.505 37.527 55.745 40.992 54.891C42.272 54.576 43.605 54.391 45.012 54.187C47.866 53.779 50.812 53.353 53.462 51.815C56.556 50.018 58.669 47.015 59.28 43.569C59.743 40.919 59.28 38.251 58.094 35.916C58.891 34.636 59.334 33.136 59.334 31.526L59.336 31.518ZM55.723 31.518C55.723 34.094 53.629 36.188 51.053 36.188C48.477 36.188 46.383 34.094 46.383 31.518C46.383 30.684 46.605 29.888 46.993 29.202C47.141 28.942 47.327 28.682 47.513 28.462C47.7064 28.2352 47.924 28.0304 48.162 27.851L48.182 27.831C48.33 27.721 48.497 27.609 48.664 27.497C48.664 27.497 48.684 27.497 48.684 27.477C48.758 27.44 48.832 27.384 48.906 27.347C48.926 27.347 48.943 27.327 48.962 27.327C49.036 27.29 49.129 27.253 49.222 27.217C49.315 27.181 49.407 27.143 49.482 27.107C49.502 27.107 49.519 27.087 49.538 27.087C49.612 27.067 49.686 27.031 49.76 27.013C49.78 27.013 49.816 26.993 49.834 26.993L50.094 26.937H50.114L50.392 26.881C50.412 26.881 50.448 26.881 50.466 26.861C50.54 26.861 50.614 26.841 50.688 26.841H50.781C50.874 26.841 50.966 26.821 51.077 26.821H51.317C51.3856 26.8181 51.4542 26.8245 51.521 26.84H51.558C51.706 26.86 51.854 26.877 52.003 26.914C53.0553 27.1393 53.9987 27.7181 54.6762 28.5541C55.3537 29.3901 55.7246 30.4329 55.727 31.509L55.723 31.518ZM26.78 3.706H55.927L49.237 23.44C48.959 23.496 48.681 23.588 48.403 23.68L41.363 9.32L34.303 23.588C34.025 23.495 33.729 23.44 33.433 23.384L26.78 3.706ZM40.028 29.906C39.676 28.164 38.788 26.608 37.528 25.459L41.364 17.714L45.237 25.626C44.0582 26.7918 43.2521 28.2814 42.921 29.906H40.028ZM30.745 26.978L31.005 26.922H31.061C31.135 26.902 31.209 26.902 31.283 26.885H31.357C31.431 26.885 31.487 26.865 31.561 26.865H32.284C32.358 26.865 32.414 26.885 32.469 26.885C32.506 26.885 32.525 26.885 32.562 26.905C32.636 26.925 32.692 26.925 32.766 26.942C32.786 26.942 32.803 26.942 32.84 26.962L33.1 27.018C33.193 27.038 33.267 27.055 33.34 27.092C33.36 27.092 33.377 27.112 33.414 27.112C33.47 27.132 33.544 27.149 33.599 27.186C33.619 27.186 33.636 27.206 33.655 27.206C33.729 27.243 33.803 27.262 33.877 27.299H33.897C33.9829 27.3311 34.064 27.3748 34.138 27.429C34.231 27.466 34.305 27.522 34.378 27.559C34.398 27.559 34.398 27.579 34.415 27.579C34.489 27.616 34.545 27.672 34.619 27.709L34.639 27.729C34.861 27.896 35.065 28.081 35.269 28.266L35.289 28.286C35.474 28.49 35.659 28.712 35.809 28.953C36.3061 29.7131 36.5703 30.6018 36.569 31.51C36.569 34.086 34.475 36.18 31.899 36.18C29.323 36.18 27.229 34.086 27.229 31.51C27.209 29.342 28.711 27.508 30.749 26.99L30.745 26.978ZM12.512 26.848C15.088 26.848 17.182 28.942 17.182 31.518C17.182 34.094 15.088 36.188 12.512 36.188C9.93601 36.188 7.84201 34.094 7.84201 31.518C7.84201 28.942 9.93601 26.848 12.512 26.848ZM55.612 42.913C55.204 45.285 53.742 47.36 51.592 48.601C49.572 49.768 47.089 50.139 44.477 50.511C43.05 50.715 41.549 50.937 40.104 51.289C36.25 52.234 32.544 54.087 28.949 55.866C24.354 58.146 20.019 60.294 15.997 60.294C13.903 60.294 12.032 59.701 10.253 58.46C6.17701 55.644 6.38001 50.363 6.86301 47.472C7.30801 44.767 8.54901 42.228 9.73501 39.802C9.80901 39.654 9.86501 39.524 9.93901 39.376C10.347 39.524 10.773 39.636 11.219 39.71C10.515 43.638 12.516 47.696 16.407 49.697L17.111 50.067L17.871 49.789C21.114 48.639 24.115 46.769 26.765 44.267C28.2291 42.9019 29.5231 41.3651 30.619 39.69C31.045 39.764 31.471 39.783 31.899 39.783C35.753 39.783 38.996 37.133 39.922 33.576H43.035C43.961 37.152 47.205 39.783 51.058 39.783C52.5319 39.7833 53.9786 39.3864 55.246 38.634C55.728 40.034 55.876 41.469 55.616 42.914L55.612 42.913Z" fill="#99424F"/>
</g>
<defs>
<clipPath id="clip0_14_269">
<rect width="64" height="64" fill="white"/>
</clipPath>
</defs>
</svg>
