<svg width="64" height="64" viewBox="0 0 64 64" fill="none" xmlns="http://www.w3.org/2000/svg">
<path d="M32.0002 37.6622C35.1565 37.6622 37.7152 35.1035 37.7152 31.9472C37.7152 28.7909 35.1565 26.2322 32.0002 26.2322C28.8439 26.2322 26.2852 28.7909 26.2852 31.9472C26.2852 35.1035 28.8439 37.6622 32.0002 37.6622Z" fill="#00D8FF"/>
<path fill-rule="evenodd" clip-rule="evenodd" d="M32.0003 20.3274C39.6735 20.3274 46.8017 21.4284 52.1763 23.2787C58.652 25.5081 62.6335 28.8873 62.6335 31.9472C62.6335 35.1359 58.4139 38.7258 51.4599 41.0298C46.2025 42.7717 39.2841 43.681 32.0003 43.681C24.5324 43.681 17.4607 42.8275 12.1441 41.0107C5.41754 38.7116 1.36609 35.0751 1.36609 31.9472C1.36609 28.9122 5.1676 25.5591 11.5522 23.3331C16.9469 21.4522 24.2511 20.3274 31.9993 20.3274H32.0003Z" stroke="#00D8FF" stroke-width="2.73408"/>
<path fill-rule="evenodd" clip-rule="evenodd" d="M21.8849 26.1708C25.7183 19.5238 30.233 13.8988 34.5209 10.1673C39.6872 5.67131 44.6036 3.91056 47.2542 5.43903C50.0165 7.03197 51.0183 12.4809 49.5402 19.6558C48.4238 25.0804 45.7542 31.5276 42.1154 37.8374C38.3845 44.3067 34.1125 50.0064 29.883 53.7033C24.531 58.3818 19.3568 60.0748 16.6472 58.5122C14.0179 56.9971 13.0125 52.0279 14.2738 45.3848C15.3395 39.772 18.014 32.8827 21.8836 26.1706L21.8849 26.1708Z" stroke="#00D8FF" stroke-width="2.73408"/>
<path fill-rule="evenodd" clip-rule="evenodd" d="M21.8945 37.8544C18.0502 31.2149 15.4329 24.493 14.3404 18.9146C13.0253 12.1933 13.9551 7.0544 16.6033 5.52149C19.3629 3.92388 24.584 5.77713 30.0618 10.6411C34.2035 14.3184 38.4564 19.85 42.1058 26.1539C45.8474 32.6169 48.6516 39.1647 49.7425 44.6752C51.1229 51.6486 50.0057 56.9768 47.2986 58.5438C44.672 60.0644 39.8653 58.4545 34.7401 54.044C30.4096 50.3177 25.7766 44.5598 21.8945 37.8543V37.8544Z" stroke="#00D8FF" stroke-width="2.73408"/>
</svg>
