<svg width="65" height="65" viewBox="0 0 65 65" fill="none" xmlns="http://www.w3.org/2000/svg">
<g clip-path="url(#clip0_14_285)">
<path d="M45.0381 44.6197C47.4368 44.3714 49.2565 42.3036 49.1738 39.8219C49.0912 37.3405 47.0232 35.3552 44.5418 35.3552H44.3765C41.812 35.438 39.827 37.5885 39.9097 40.1527C39.9925 41.3936 40.4887 42.4689 41.2331 43.2133C38.4208 48.7556 34.1197 52.8087 27.6679 56.2001C23.284 58.5163 18.7347 59.3435 14.1855 58.7646C10.4632 58.2682 7.56818 56.614 5.74818 53.884C3.10146 49.8309 2.8534 45.4467 5.08675 41.0627C6.65843 37.9194 9.13961 35.6032 10.7113 34.4452C10.3804 33.3699 9.88406 31.5501 9.63599 30.2268C-2.35778 38.9122 -1.11694 50.6581 2.52256 56.2001C5.25205 60.3363 10.7941 62.9005 16.915 62.9005C18.5692 62.9005 20.2234 62.7349 21.8778 62.3216C32.4655 60.2535 40.4889 53.9668 45.0381 44.6197ZM59.5961 34.3627C53.3096 27.0006 44.0456 22.9475 33.458 22.9475H32.1346C31.3902 21.4586 29.8185 20.4659 28.0815 20.4659H27.916C25.352 20.5486 23.367 22.6992 23.4495 25.2637C23.5323 27.7451 25.6001 29.7304 28.0815 29.7304H28.2468C30.0666 29.6476 31.6382 28.4896 32.2999 26.9179H33.7888C40.0753 26.9179 46.0307 28.7376 51.4074 32.2946C55.543 35.0243 58.5208 38.5813 60.175 42.8825C61.5811 46.3567 61.4984 49.7481 60.0095 52.6434C57.6936 57.0274 53.806 59.4263 48.6776 59.4263C45.369 59.4263 42.2259 58.4335 40.5714 57.689C39.6617 58.5163 38.0072 59.8396 36.8492 60.6671C40.4061 62.3213 44.0456 63.2313 47.5196 63.2313C55.4602 63.2313 61.3331 58.8471 63.5664 54.4632C65.9651 49.6653 65.7995 41.3936 59.5961 34.3627ZM17.5767 46.0256C17.6594 48.5073 19.7272 50.4923 22.2087 50.4923H22.3742C24.9384 50.4098 26.9235 48.2589 26.8407 45.6948C26.7582 43.2131 24.6901 41.228 22.2087 41.228H22.0434C21.8778 41.228 21.6295 41.228 21.4645 41.3106C18.073 35.6858 16.6669 29.5648 17.1633 22.9473C17.4939 17.9842 19.1483 13.6828 22.0434 10.1258C24.442 7.0652 29.074 5.57629 32.2174 5.49377C40.985 5.32822 44.707 16.247 44.9554 20.6312C46.0307 20.8792 47.8504 21.4584 49.0912 21.872C48.0985 8.47184 39.827 1.52344 31.8866 1.52344C24.442 1.52344 17.5767 6.90016 14.8469 14.8411C11.0421 25.429 13.5236 35.6032 18.1556 43.6269C17.7422 44.2058 17.4939 45.1156 17.5767 46.0256Z" fill="#764ABC"/>
</g>
<defs>
<clipPath id="clip0_14_285">
<rect width="65" height="65" fill="white"/>
</clipPath>
</defs>
</svg>
