<svg width="234" height="208" viewBox="0 0 234 208" fill="none" xmlns="http://www.w3.org/2000/svg">
<line x1="71.141" y1="118.473" x2="93.9664" y2="89.3493" stroke="#EE00FF" stroke-opacity="0.26"/>
<line x1="78.4052" y1="54.2514" x2="93.4082" y2="91.2907" stroke="#EE00FF" stroke-opacity="0.26"/>
<line x1="40.7736" y1="49.9609" x2="80.3205" y2="55.7086" stroke="#EE00FF" stroke-opacity="0.26"/>
<line x1="32.6593" y1="26.8122" x2="42.0495" y2="49.1018" stroke="#EE00FF" stroke-opacity="0.26"/>
<line x1="94.0828" y1="88.8971" x2="130.436" y2="94.0403" stroke="#EE00FF" stroke-opacity="0.26"/>
<line x1="147.774" y1="72.5986" x2="130.763" y2="94.8391" stroke="#EE00FF" stroke-opacity="0.26"/>
<line x1="130.83" y1="94.3489" x2="144.705" y2="128.881" stroke="#EE00FF" stroke-opacity="0.26"/>
<line x1="144.319" y1="128.574" x2="171.28" y2="132.828" stroke="#EE00FF" stroke-opacity="0.26"/>
<line x1="171.666" y1="133.135" x2="183.392" y2="162.247" stroke="#EE00FF" stroke-opacity="0.26"/>
<line x1="183.073" y1="162.913" x2="153.587" y2="171.835" stroke="#EE00FF" stroke-opacity="0.26"/>
<line x1="183.414" y1="162.552" x2="176.963" y2="189.093" stroke="#EE00FF" stroke-opacity="0.26"/>
<line x1="182.951" y1="161.935" x2="214.539" y2="163.433" stroke="#EE00FF" stroke-opacity="0.26"/>
<circle cx="42.383" cy="49.9034" r="4" transform="rotate(37.4104 42.383 49.9034)" fill="#EE00FF" fill-opacity="0.77"/>
<circle cx="182.928" cy="162.434" r="4" transform="rotate(37.4104 182.928 162.434)" fill="#EE00FF" fill-opacity="0.77"/>
<circle cx="144.848" cy="128.273" r="4" transform="rotate(37.4104 144.848 128.273)" fill="#EE00FF" fill-opacity="0.77"/>
<circle cx="171.202" cy="133.322" r="4" transform="rotate(37.4104 171.202 133.322)" fill="#EE00FF" fill-opacity="0.77"/>
<circle cx="130.366" cy="94.5353" r="4" transform="rotate(37.4104 130.366 94.5353)" fill="#EE00FF" fill-opacity="0.77"/>
<circle cx="93.4053" cy="90.1865" r="4" transform="rotate(37.4104 93.4053 90.1865)" fill="#EE00FF" fill-opacity="0.77"/>
<circle cx="71.5346" cy="118.781" r="4" transform="rotate(37.4104 71.5346 118.781)" fill="#EE00FF" fill-opacity="0.77"/>
<circle cx="77.9418" cy="54.4391" r="4" transform="rotate(37.4104 77.9418 54.4391)" fill="#EE00FF" fill-opacity="0.77"/>
</svg>
