<svg width="171" height="197" viewBox="0 0 171 197" fill="none" xmlns="http://www.w3.org/2000/svg">
<line y1="-0.5" x2="64.9342" y2="-0.5" transform="matrix(-0.802402 -0.596783 0.612476 -0.790489 117.022 111.567)" stroke="#EE00FF" stroke-opacity="0.26"/>
<line y1="-0.5" x2="40.9464" y2="-0.5" transform="matrix(-0.791686 -0.610928 0.626025 -0.779803 149.257 136.409)" stroke="#EE00FF" stroke-opacity="0.26"/>
<line y1="-0.5" x2="19.9937" y2="-0.5" transform="matrix(-0.793455 -0.608628 0.623824 -0.781565 165.121 148.578)" stroke="#EE00FF" stroke-opacity="0.26"/>
<line y1="-0.5" x2="65.1532" y2="-0.5" transform="matrix(0.780677 -0.624935 0.633592 0.773667 63.2465 72.0948)" stroke="#EE00FF" stroke-opacity="0.26"/>
<ellipse cx="117.054" cy="112.295" rx="2.79081" ry="2.72472" transform="rotate(154.854 117.054 112.295)" fill="#EE00FF" fill-opacity="0.77"/>
<path d="M114.981 113.268C114.463 112.166 114.954 110.824 116.109 110.281C117.265 109.739 118.611 110.22 119.128 111.322C119.645 112.424 119.155 113.766 118 114.309C116.844 114.851 115.498 114.371 114.981 113.268Z" stroke="#EE00FF" stroke-opacity="0.26"/>
<ellipse cx="43.1274" cy="132.652" rx="2.79081" ry="2.72472" transform="rotate(154.854 43.1274 132.652)" fill="#EE00FF" fill-opacity="0.77"/>
<path d="M41.0537 133.626C40.5364 132.524 41.0265 131.181 42.1821 130.638C43.3376 130.096 44.6838 130.577 45.2011 131.679C45.7184 132.781 45.2283 134.124 44.0727 134.666C42.9172 135.209 41.571 134.728 41.0537 133.626Z" stroke="#EE00FF" stroke-opacity="0.26"/>
<ellipse cx="63.0763" cy="72.1746" rx="2.79081" ry="2.72472" transform="rotate(154.854 63.0763 72.1746)" fill="#EE00FF" fill-opacity="0.77"/>
<path d="M61.0026 73.148C60.4853 72.0459 60.9754 70.7031 62.131 70.1607C63.2866 69.6183 64.6327 70.0991 65.1501 71.2012C65.6674 72.3032 65.1772 73.646 64.0217 74.1885C62.8661 74.7309 61.52 74.2501 61.0026 73.148Z" stroke="#EE00FF" stroke-opacity="0.26"/>
<ellipse cx="112.935" cy="32.2924" rx="2.79081" ry="2.72472" transform="rotate(154.854 112.935 32.2924)" fill="#EE00FF" fill-opacity="0.77"/>
<path d="M110.861 33.2659C110.344 32.1638 110.834 30.821 111.99 30.2786C113.145 29.7361 114.491 30.217 115.009 31.319C115.526 32.4211 115.036 33.7639 113.88 34.3063C112.725 34.8488 111.379 34.3679 110.861 33.2659Z" stroke="#EE00FF" stroke-opacity="0.26"/>
<ellipse cx="165.342" cy="148.795" rx="2.79081" ry="2.72472" transform="rotate(154.854 165.342 148.795)" fill="#EE00FF" fill-opacity="0.77"/>
<path d="M163.268 149.768C162.751 148.666 163.241 147.323 164.396 146.781C165.552 146.239 166.898 146.719 167.415 147.821C167.933 148.924 167.442 150.266 166.287 150.809C165.131 151.351 163.785 150.87 163.268 149.768Z" stroke="#EE00FF" stroke-opacity="0.26"/>
<ellipse cx="149.471" cy="137.31" rx="2.79081" ry="2.72472" transform="rotate(154.854 149.471 137.31)" fill="#EE00FF" fill-opacity="0.77"/>
<path d="M147.397 138.284C146.88 137.182 147.37 135.839 148.526 135.296C149.681 134.754 151.027 135.235 151.545 136.337C152.062 137.439 151.572 138.782 150.416 139.324C149.261 139.867 147.915 139.386 147.397 138.284Z" stroke="#EE00FF" stroke-opacity="0.26"/>
<ellipse cx="17.6758" cy="42.0573" rx="2.79081" ry="2.72472" transform="rotate(154.854 17.6758 42.0573)" fill="#EE00FF" fill-opacity="0.77"/>
<path d="M15.6021 43.0308C15.0848 41.9287 15.5749 40.5859 16.7305 40.0435C17.8861 39.501 19.2322 39.9819 19.7495 41.0839C20.2669 42.186 19.7767 43.5288 18.6212 44.0712C17.4656 44.6137 16.1194 44.1328 15.6021 43.0308Z" stroke="#EE00FF" stroke-opacity="0.26"/>
<line x1="63.5506" y1="72.3329" x2="43.9175" y2="131.158" stroke="#EE00FF" stroke-opacity="0.26"/>
<line y1="-0.5" x2="55.796" y2="-0.5" transform="matrix(0.827278 0.561793 -0.578868 0.815422 17.4551 41.84)" stroke="#EE00FF" stroke-opacity="0.26"/>
</svg>
