<svg width="224" height="204" viewBox="0 0 224 204" fill="none" xmlns="http://www.w3.org/2000/svg">
<line x1="68.0304" y1="197.368" x2="116.091" y2="115.624" stroke="#EE00FF" stroke-opacity="0.26"/>
<line x1="118.078" y1="111.185" x2="209.981" y2="87.8205" stroke="#EE00FF" stroke-opacity="0.26"/>
<circle cx="67.3388" cy="198.375" r="4" transform="rotate(-121.901 67.3388 198.375)" fill="#EE00FF" fill-opacity="0.77"/>
<circle cx="115.875" cy="30.347" r="4" transform="rotate(-121.901 115.875 30.347)" fill="#EE00FF" fill-opacity="0.77"/>
<path d="M55.9066 114.392C57.7821 113.225 60.2488 113.799 61.4162 115.674C62.5837 117.549 62.0097 120.016 60.1342 121.184C58.2587 122.351 55.792 121.777 54.6246 119.902C53.4571 118.026 54.0311 115.559 55.9066 114.392Z" fill="#EE00FF" fill-opacity="0.77"/>
<path d="M114.615 108.445C116.49 107.278 118.957 107.852 120.124 109.727C121.292 111.603 120.718 114.069 118.842 115.237C116.967 116.404 114.5 115.83 113.333 113.955C112.165 112.079 112.739 109.613 114.615 108.445Z" fill="#EE00FF" fill-opacity="0.77"/>
<circle cx="207.564" cy="88.708" r="4" transform="rotate(-121.901 207.564 88.708)" fill="#EE00FF" fill-opacity="0.77"/>
<line x1="117.559" y1="111.455" x2="115.375" y2="30.3606" stroke="#EE00FF" stroke-opacity="0.26"/>
<line x1="114.061" y1="112.077" x2="57.4867" y2="119.039" stroke="#EE00FF" stroke-opacity="0.26"/>
</svg>
