<svg width="218" height="195" viewBox="0 0 218 195" fill="none" xmlns="http://www.w3.org/2000/svg">
<line x1="41.5505" y1="188.534" x2="112.163" y2="125.241" stroke="#EE00FF" stroke-opacity="0.26"/>
<line x1="115.404" y1="121.616" x2="210.062" y2="127.259" stroke="#EE00FF" stroke-opacity="0.26"/>
<circle cx="40.586" cy="189.282" r="4" transform="rotate(-104.225 40.586 189.282)" fill="#EE00FF" fill-opacity="0.77"/>
<circle cx="137.849" cy="43.9249" r="4" transform="rotate(-104.225 137.849 43.9249)" fill="#EE00FF" fill-opacity="0.77"/>
<path d="M68.7952 28.0204C70.9366 27.4776 73.1126 28.7735 73.6554 30.9149C74.1983 33.0563 72.9024 35.2323 70.761 35.7751C68.6196 36.318 66.4436 35.0221 65.9007 32.8807C65.3579 30.7393 66.6538 28.5633 68.7952 28.0204Z" fill="#EE00FF" fill-opacity="0.77"/>
<path d="M55.1936 105.793C57.335 105.251 59.511 106.547 60.0539 108.688C60.5967 110.829 59.3009 113.005 57.1595 113.548C55.0181 114.091 52.842 112.795 52.2992 110.654C51.7563 108.512 53.0522 106.336 55.1936 105.793Z" fill="#EE00FF" fill-opacity="0.77"/>
<path d="M112.936 117.953C115.077 117.41 117.253 118.706 117.796 120.848C118.339 122.989 117.043 125.165 114.901 125.708C112.76 126.251 110.584 124.955 110.041 122.813C109.498 120.672 110.794 118.496 112.936 117.953Z" fill="#EE00FF" fill-opacity="0.77"/>
<circle cx="207.49" cy="127.371" r="4" transform="rotate(-104.225 207.49 127.371)" fill="#EE00FF" fill-opacity="0.77"/>
<line x1="114.827" y1="121.715" x2="137.369" y2="43.7859" stroke="#EE00FF" stroke-opacity="0.26"/>
<line x1="111.305" y1="121.245" x2="55.2882" y2="110.701" stroke="#EE00FF" stroke-opacity="0.26"/>
<line x1="113.844" y1="121.795" x2="70.0873" y2="31.8769" stroke="#EE00FF" stroke-opacity="0.26"/>
</svg>
