<svg width="65" height="65" viewBox="0 0 65 65" fill="none" xmlns="http://www.w3.org/2000/svg">
<path d="M46.7533 54.8438V52.8125C46.7533 51.6913 45.8453 50.7812 44.7241 50.7812L40.6575 50.7792L32.5345 50.7812C27.5702 50.7812 25.8131 49.3066 25.7969 49.2944L24.4095 50.7772L22.9714 52.2113C23.4102 52.652 25.933 54.8438 32.5345 54.8438H34.5658C34.5658 58.2034 37.2998 60.9375 40.6595 60.9375C44.0192 60.9375 46.7533 58.2034 46.7533 54.8438ZM40.6595 56.875C39.5383 56.875 38.6283 55.965 38.6283 54.8438H42.6908C42.6908 55.965 41.7788 56.875 40.6595 56.875ZM26.0569 31.8337C22.9877 28.7625 17.6353 28.7645 14.5681 31.8337C13.0345 33.3673 12.1875 35.4088 12.1875 37.5781C12.1875 39.7475 13.0345 41.7889 14.5681 43.3225C16.1017 44.8581 18.1431 45.7031 20.3125 45.7031C22.4819 45.7031 24.5233 44.8581 26.0569 43.3225C27.5905 41.7889 28.4375 39.7475 28.4375 37.5781C28.4375 35.4088 27.5905 33.3673 26.0569 31.8337ZM23.1847 40.4503C21.6491 41.9859 18.9759 41.9859 17.4403 40.4503C16.6725 39.6825 16.25 38.6628 16.25 37.5781C16.25 36.4934 16.6725 35.4738 17.4403 34.7059C18.2081 33.9381 19.2278 33.5156 20.3125 33.5156C21.3972 33.5156 22.4169 33.9381 23.1847 34.7059C23.9525 35.4738 24.375 36.4934 24.375 37.5781C24.375 38.6628 23.9525 39.6825 23.1847 40.4503ZM32.5 37.5781L38.5938 47.7344H26.4062L32.5 37.5781ZM44.6875 29.4531C42.5181 29.4531 40.4767 30.3002 38.9431 31.8317C37.4075 33.3673 36.5625 35.4088 36.5625 37.5781C36.5625 39.7475 37.4075 41.7889 38.9431 43.3225C40.4767 44.8581 42.5181 45.7031 44.6875 45.7031C46.8569 45.7031 48.8983 44.8581 50.4319 43.3225C51.9675 41.7889 52.8125 39.7475 52.8125 37.5781C52.8125 35.4088 51.9675 33.3673 50.4319 31.8337C48.8983 30.3002 46.8569 29.4531 44.6875 29.4531ZM47.5597 40.4503C46.0241 41.9859 43.3509 41.9859 41.8153 40.4503C41.0475 39.6825 40.625 38.6628 40.625 37.5781C40.625 36.4934 41.0475 35.4738 41.8153 34.7059C42.5831 33.9381 43.6028 33.5156 44.6875 33.5156C45.7722 33.5156 46.7919 33.9381 47.5597 34.7059C48.3275 35.4738 48.75 36.4934 48.75 37.5781C48.75 38.6628 48.3275 39.6825 47.5597 40.4503ZM58.9083 31.7505V26.4062C58.9083 21.9355 55.2642 20.3125 52.8145 20.3125H34.5312V11.8137C36.8895 10.9728 38.5938 8.73844 38.5938 6.09375C38.5938 2.73406 35.8597 0 32.5 0C29.1403 0 26.4062 2.73406 26.4062 6.09375C26.4062 8.73844 28.1105 10.9728 30.4688 11.8137V20.3125H12.1875C7.71672 20.3125 6.09375 23.9566 6.09375 26.4062V31.7505C2.82547 32.502 0 35.0005 0 39.6094V47.7466C0.040625 51.2525 1.96016 54.7767 6.09375 55.6481V58.9062C6.09375 63.377 9.73781 65 12.1875 65H52.8145C57.2853 65 58.9083 61.3559 58.9083 58.9062V55.6481C63.0398 54.7747 64.9594 51.2484 65 47.7242V39.6094C65 35.0025 62.1766 32.502 58.9083 31.7505ZM6.09375 51.4069C4.39969 50.6309 4.07672 48.8698 4.0625 47.7242V39.6094C4.0625 37.4928 5.00703 36.4548 6.09375 35.9633V51.4069ZM32.5 4.0625C33.6192 4.0625 34.5312 4.97453 34.5312 6.09375C34.5312 7.21297 33.6192 8.125 32.5 8.125C31.3808 8.125 30.4688 7.21297 30.4688 6.09375C30.4688 4.97453 31.3808 4.0625 32.5 4.0625ZM54.8458 31.4559V55.8594V58.8819C54.8214 59.8203 54.4517 60.9375 52.8145 60.9375H40.6595H12.2098C11.2734 60.9131 10.1562 60.5434 10.1562 58.9062V55.8594V31.4559V26.4286C10.1786 25.4922 10.5503 24.375 12.1875 24.375H52.7922C53.7306 24.3994 54.8478 24.7711 54.8478 26.4062V31.4559H54.8458ZM60.9375 47.6978C60.9233 48.8617 60.6023 50.6269 58.9083 51.4048V35.9613C59.993 36.4569 60.9375 37.4928 60.9375 39.6094V47.6978Z" fill="#B801C6" fill-opacity="0.79"/>
</svg>
