<svg width="36" height="36" viewBox="0 0 36 36" fill="none" xmlns="http://www.w3.org/2000/svg">
<path d="M18 0C27.9415 0 36 8.05852 36 18C36 27.9415 27.9415 36 18 36C8.05852 36 0 27.9415 0 18C0 8.05852 8.05852 0 18 0ZM24.2092 25.337C24.5403 24.3211 26.0914 14.1973 26.2831 12.2024C26.341 11.5983 26.1501 11.1968 25.776 11.0176C25.3237 10.8 24.6537 10.9088 23.8766 11.189C22.8107 11.5732 9.18391 17.359 8.39661 17.694C7.65 18.011 6.94409 18.3569 6.94409 18.8577C6.94409 19.2099 7.15304 19.4079 7.72904 19.6137C8.32852 19.8274 9.83817 20.2852 10.7296 20.531C11.5881 20.7681 12.5656 20.5623 13.1134 20.2218C13.6941 19.861 20.3956 15.3767 20.8769 14.9838C21.3574 14.591 21.7409 15.0942 21.348 15.4878C20.9551 15.8807 16.355 20.3455 15.7484 20.9637C15.012 21.7143 15.5348 22.4922 16.0286 22.8037C16.5929 23.159 20.6507 25.8809 21.2619 26.3176C21.8731 26.7543 22.493 26.9523 23.0603 26.9523C23.6277 26.9523 23.9267 26.2049 24.2092 25.337Z" fill="#B308C0"/>
</svg>
